# xmcd
# 
# Track frame offsets:
#     150
#     25895
#     43725
#     63341
# 
# Disc length: 1152
# 
# Revision: 0
# Processed by: cddbd v1.5.2PL0 Copyright (c) Steve Scherf et al.
# Submitted via: fre:ac v1.0.17
# 
DISCID=2e047e04
DTITLE=加藤ミリヤ - HEART BEAT
DYEAR=2012
DGENRE=R&B
TTITLE0=HEART BEAT
TTITLE1=楽園
TTITLE2=HEART BEAT (DEXPISTOLS REMIX)
TTITLE3=HEART BEAT (MANABOON BOOGIE REMIX)
EXTD=
EXTT0=
EXTT1=
EXTT2=
EXTT3=
PLAYORDER=
